<svg width="202" height="30" viewBox="0 0 202 30" fill="none" xmlns="http://www.w3.org/2000/svg">
<path d="M198.259 7.36364C198.106 6.06818 197.483 5.0625 196.392 4.34659C195.302 3.63068 193.963 3.27273 192.378 3.27273C191.219 3.27273 190.205 3.46023 189.336 3.83523C188.475 4.21023 187.802 4.72585 187.316 5.3821C186.838 6.03835 186.6 6.78409 186.6 7.61932C186.6 8.31818 186.766 8.91903 187.098 9.42188C187.439 9.91619 187.874 10.3295 188.402 10.6619C188.931 10.9858 189.485 11.2543 190.064 11.4673C190.644 11.6719 191.177 11.8381 191.662 11.9659L194.321 12.6818C195.003 12.8608 195.762 13.108 196.597 13.4233C197.441 13.7386 198.246 14.169 199.013 14.7145C199.789 15.2514 200.428 15.9418 200.931 16.7855C201.434 17.6293 201.685 18.6648 201.685 19.892C201.685 21.3068 201.314 22.5852 200.573 23.7273C199.84 24.8693 198.766 25.777 197.351 26.4503C195.945 27.1236 194.236 27.4602 192.225 27.4602C190.35 27.4602 188.726 27.1577 187.354 26.5526C185.99 25.9474 184.917 25.1037 184.132 24.0213C183.357 22.9389 182.918 21.6818 182.816 20.25H186.088C186.174 21.2386 186.506 22.0568 187.086 22.7045C187.674 23.3438 188.415 23.821 189.31 24.1364C190.213 24.4432 191.185 24.5966 192.225 24.5966C193.435 24.5966 194.522 24.4006 195.485 24.0085C196.448 23.608 197.211 23.054 197.773 22.3466C198.336 21.6307 198.617 20.7955 198.617 19.8409C198.617 18.9716 198.374 18.2642 197.888 17.7188C197.402 17.1733 196.763 16.7301 195.971 16.3892C195.178 16.0483 194.321 15.75 193.401 15.4943L190.179 14.5739C188.134 13.9858 186.515 13.1463 185.321 12.0554C184.128 10.9645 183.532 9.53693 183.532 7.77273C183.532 6.30682 183.928 5.02841 184.721 3.9375C185.522 2.83807 186.596 1.9858 187.942 1.38068C189.297 0.767046 190.81 0.460228 192.48 0.460228C194.168 0.460228 195.668 0.762785 196.98 1.3679C198.293 1.96449 199.333 2.78267 200.1 3.82244C200.875 4.86222 201.284 6.04261 201.327 7.36364H198.259Z" fill="white"/>
<path d="M174.417 0.81818H177.587V19.5341C177.587 21.2045 177.28 22.6236 176.667 23.7912C176.053 24.9588 175.188 25.8452 174.071 26.4503C172.955 27.0554 171.638 27.358 170.121 27.358C168.689 27.358 167.415 27.098 166.299 26.5781C165.182 26.0497 164.304 25.2997 163.665 24.3281C163.026 23.3565 162.706 22.2017 162.706 20.8636H165.826C165.826 21.6051 166.009 22.2528 166.375 22.8068C166.75 23.3523 167.262 23.7784 167.909 24.0852C168.557 24.392 169.294 24.5455 170.121 24.5455C171.033 24.5455 171.809 24.3537 172.448 23.9702C173.087 23.5866 173.573 23.0241 173.905 22.2827C174.246 21.5327 174.417 20.6165 174.417 19.5341V0.81818Z" fill="white"/>
<path d="M147.215 19.8409L147.164 16.108H147.778L156.369 7.36364H160.102L150.948 16.6193H150.692L147.215 19.8409ZM144.403 27V0.81818H147.42V27H144.403ZM156.88 27L149.21 17.2841L151.357 15.1875L160.715 27H156.88Z" fill="white"/>
<path d="M138.877 0.81818V27H135.86V0.81818H138.877Z" fill="white"/>
<path d="M121.353 27.4602C120.109 27.4602 118.979 27.2259 117.965 26.7571C116.951 26.2798 116.146 25.5938 115.549 24.6989C114.952 23.7955 114.654 22.7045 114.654 21.4261C114.654 20.3011 114.876 19.3892 115.319 18.6903C115.762 17.983 116.354 17.429 117.096 17.0284C117.837 16.6278 118.656 16.3295 119.55 16.1335C120.454 15.929 121.362 15.767 122.273 15.6477C123.467 15.4943 124.434 15.3793 125.175 15.3026C125.925 15.2173 126.471 15.0767 126.812 14.8807C127.161 14.6847 127.336 14.3438 127.336 13.858V13.7557C127.336 12.4943 126.991 11.5142 126.3 10.8153C125.619 10.1165 124.583 9.76705 123.194 9.76705C121.754 9.76705 120.624 10.0824 119.806 10.7131C118.988 11.3438 118.413 12.017 118.08 12.733L115.217 11.7102C115.728 10.517 116.41 9.58807 117.262 8.9233C118.123 8.25 119.06 7.78125 120.075 7.51705C121.097 7.24432 122.103 7.10796 123.092 7.10796C123.722 7.10796 124.447 7.18466 125.265 7.33807C126.092 7.48295 126.889 7.78551 127.656 8.24574C128.431 8.70597 129.075 9.40057 129.586 10.3295C130.097 11.2585 130.353 12.5028 130.353 14.0625V27H127.336V24.3409H127.183C126.978 24.767 126.637 25.223 126.16 25.7088C125.683 26.1946 125.048 26.608 124.255 26.9489C123.462 27.2898 122.495 27.4602 121.353 27.4602ZM121.813 24.75C123.006 24.75 124.012 24.5156 124.83 24.0469C125.657 23.5781 126.279 22.973 126.697 22.2315C127.123 21.4901 127.336 20.7102 127.336 19.892V17.1307C127.208 17.2841 126.927 17.4247 126.492 17.5526C126.066 17.6719 125.572 17.7784 125.009 17.8722C124.455 17.9574 123.914 18.0341 123.386 18.1023C122.866 18.1619 122.444 18.2131 122.12 18.2557C121.336 18.358 120.603 18.5241 119.921 18.7543C119.248 18.9759 118.702 19.3125 118.285 19.7642C117.876 20.2074 117.671 20.8125 117.671 21.5795C117.671 22.6278 118.059 23.4205 118.835 23.9574C119.619 24.4858 120.612 24.75 121.813 24.75Z" fill="white"/>
<path d="M94.1261 3.63068V0.81818H113.762V3.63068H105.53V27H102.359V3.63068H94.1261Z" fill="white"/>
<path d="M80.4183 19.8409L80.3672 16.108H80.9808L89.5717 7.36364H93.3047L84.1513 16.6193H83.8956L80.4183 19.8409ZM77.6058 27V0.81818H80.6229V27H77.6058ZM90.0831 27L82.4127 17.2841L84.5604 15.1875L93.9183 27H90.0831Z" fill="white"/>
<path d="M65.4737 27.4091C63.6328 27.4091 62.0476 26.9744 60.718 26.1051C59.3885 25.2358 58.3658 24.0384 57.6499 22.5128C56.9339 20.9872 56.576 19.2443 56.576 17.2841C56.576 15.2898 56.9425 13.5298 57.6754 12.0043C58.4169 10.4702 59.4481 9.27273 60.7692 8.41193C62.0987 7.54261 63.6499 7.10796 65.4226 7.10796C66.8033 7.10796 68.0476 7.36364 69.1555 7.875C70.2635 8.38636 71.1712 9.10227 71.8785 10.0227C72.5859 10.9432 73.0249 12.017 73.1953 13.2443H70.1783C69.9482 12.3494 69.4368 11.5568 68.6442 10.8665C67.8601 10.1676 66.8033 9.81818 65.4737 9.81818C64.2976 9.81818 63.2663 10.125 62.38 10.7386C61.5021 11.3438 60.816 12.2003 60.3217 13.3082C59.8359 14.4077 59.593 15.6989 59.593 17.1818C59.593 18.6989 59.8317 20.0199 60.3089 21.1449C60.7947 22.2699 61.4766 23.1435 62.3544 23.7656C63.2408 24.3878 64.2805 24.6989 65.4737 24.6989C66.2578 24.6989 66.9695 24.5625 67.6087 24.2898C68.2479 24.017 68.7891 23.625 69.2322 23.1136C69.6754 22.6023 69.9908 21.9886 70.1783 21.2727H73.1953C73.0249 22.4318 72.603 23.4759 71.9297 24.4048C71.2649 25.3253 70.3828 26.0582 69.2834 26.6037C68.1925 27.1406 66.9226 27.4091 65.4737 27.4091Z" fill="white"/>
<path d="M48.9535 27V7.36364H51.9705V27H48.9535ZM50.4876 4.09091C49.8995 4.09091 49.3924 3.89062 48.9663 3.49006C48.5486 3.08949 48.3398 2.60795 48.3398 2.04545C48.3398 1.48295 48.5486 1.00142 48.9663 0.600851C49.3924 0.200284 49.8995 0 50.4876 0C51.0756 0 51.5785 0.200284 51.9961 0.600851C52.4222 1.00142 52.6353 1.48295 52.6353 2.04545C52.6353 2.60795 52.4222 3.08949 51.9961 3.49006C51.5785 3.89062 51.0756 4.09091 50.4876 4.09091Z" fill="white"/>
<path d="M40.4105 18.9716V7.36364H43.4276V27H40.4105V23.6761H40.206C39.7458 24.6733 39.0298 25.5213 38.0583 26.2202C37.0867 26.9105 35.8594 27.2557 34.3764 27.2557C33.1492 27.2557 32.0582 26.9872 31.1037 26.4503C30.1492 25.9048 29.3992 25.0866 28.8537 23.9957C28.3082 22.8963 28.0355 21.5114 28.0355 19.8409V7.36364H31.0526V19.6364C31.0526 21.0682 31.4531 22.2102 32.2543 23.0625C33.0639 23.9148 34.0952 24.3409 35.348 24.3409C36.098 24.3409 36.8608 24.1491 37.6364 23.7656C38.4205 23.3821 39.0767 22.794 39.6051 22.0014C40.1421 21.2088 40.4105 20.1989 40.4105 18.9716Z" fill="white"/>
<path d="M10.5341 18.8182H14.0114L16.9261 22.6534L17.6932 23.6761L22.0398 29.4545H18.5625L15.6989 25.6193L14.983 24.6477L10.5341 18.8182ZM23.1136 13.9091C23.1136 16.6705 22.6151 19.0568 21.6179 21.0682C20.6207 23.0795 19.2528 24.6307 17.5142 25.7216C15.7756 26.8125 13.7898 27.358 11.5568 27.358C9.32386 27.358 7.33807 26.8125 5.59943 25.7216C3.8608 24.6307 2.4929 23.0795 1.49574 21.0682C0.498579 19.0568 0 16.6705 0 13.9091C0 11.1477 0.498579 8.76137 1.49574 6.75C2.4929 4.73864 3.8608 3.1875 5.59943 2.09659C7.33807 1.00568 9.32386 0.460228 11.5568 0.460228C13.7898 0.460228 15.7756 1.00568 17.5142 2.09659C19.2528 3.1875 20.6207 4.73864 21.6179 6.75C22.6151 8.76137 23.1136 11.1477 23.1136 13.9091ZM20.0455 13.9091C20.0455 11.642 19.6662 9.7287 18.9077 8.16904C18.1577 6.60938 17.1392 5.42898 15.8523 4.62784C14.5739 3.82671 13.142 3.42614 11.5568 3.42614C9.97159 3.42614 8.53551 3.82671 7.24858 4.62784C5.97017 5.42898 4.9517 6.60938 4.19318 8.16904C3.44318 9.7287 3.06818 11.642 3.06818 13.9091C3.06818 16.1761 3.44318 18.0895 4.19318 19.6491C4.9517 21.2088 5.97017 22.3892 7.24858 23.1903C8.53551 23.9915 9.97159 24.392 11.5568 24.392C13.142 24.392 14.5739 23.9915 15.8523 23.1903C17.1392 22.3892 18.1577 21.2088 18.9077 19.6491C19.6662 18.0895 20.0455 16.1761 20.0455 13.9091Z" fill="white"/>
</svg>
